<svg width="1400" height="155" viewBox="0 0 1400 155" fill="none" xmlns="http://www.w3.org/2000/svg">
<path d="M160.25 144.5V151.75H94V144.5L106.25 145C111.25 145.5 113.75 143.5 113.75 139C113.75 136.167 112.917 132.917 111.25 129.25L99 99.75H40.75L29.25 127.75C26.9167 132.917 25.75 137.083 25.75 140.25C25.75 143.75 27.5833 145.417 31.25 145.25L43.25 144.5V151.75H0V144.5L6.5 145H7.5C10.8333 145 13.5833 143.417 15.75 140.25C18.25 136.583 20.75 131.75 23.25 125.75L75.5 0H82L134.75 126.25C137.083 132.25 139.5 137 142 140.5C144.333 143.5 147.25 145 150.75 145H152L160.25 144.5ZM43.75 92.75H96L69.75 29.75L43.75 92.75Z" fill="url(#paint0_linear_54_2559)" fill-opacity="0.1"/>
<path d="M205.146 144.5L215.896 145C218.396 145 219.646 143.167 219.646 139.5V14.75C219.646 13.25 219.23 12 218.396 11C217.563 10 216.396 9.50001 214.896 9.50001L205.146 10V2.50001H261.396C288.063 2.50001 307.73 8.33335 320.396 20C333.23 31.5 339.646 50.5 339.646 77C339.646 126.833 314.563 151.75 264.396 151.75H205.146V144.5ZM242.896 141.5C242.896 143.667 243.896 144.75 245.896 144.75H257.146C271.146 144.75 282.23 142.583 290.396 138.25C298.73 133.75 304.73 126.583 308.396 116.75C312.23 106.917 314.146 93.75 314.146 77.25C314.146 60.75 312.23 47.5833 308.396 37.75C304.73 27.9167 298.73 20.75 290.396 16.25C282.063 11.75 270.98 9.50001 257.146 9.50001H245.896C243.896 9.50001 242.896 10.5833 242.896 12.75V141.5Z" fill="url(#paint1_linear_54_2559)" fill-opacity="0.1"/>
<path d="M529.828 2.50001V10L520.828 9.50001C519.495 9.33334 518.495 9.66667 517.828 10.5C517.328 11.3333 516.578 12.9167 515.578 15.25L456.078 152.75H449.578L390.328 15.25C388.495 11.4167 386.578 9.50001 384.578 9.50001L377.578 10V2.50001H431.328V10L418.078 9.50001C417.245 9.50001 416.578 9.91668 416.078 10.75C415.578 11.4167 415.328 12.25 415.328 13.25C415.328 13.75 415.495 14.5 415.828 15.5L461.078 119.5L504.578 18.25C505.745 15.25 506.328 13.25 506.328 12.25C506.328 10.4167 505.328 9.50001 503.328 9.50001L490.578 10V2.50001H529.828Z" fill="url(#paint2_linear_54_2559)" fill-opacity="0.1"/>
<path d="M566.738 77C566.738 52.1667 573.072 33.1667 585.738 20C598.572 6.66667 616.405 0 639.238 0C662.405 0 680.238 6.75 692.738 20.25C705.405 33.75 711.738 52.6667 711.738 77C711.738 101.5 705.322 120.5 692.488 134C679.822 147.5 662.072 154.25 639.238 154.25C616.405 154.25 598.572 147.5 585.738 134C573.072 120.5 566.738 101.5 566.738 77ZM592.238 77C592.238 102 595.988 120 603.488 131C611.155 142 623.072 147.5 639.238 147.5C655.405 147.5 667.238 142 674.738 131C682.405 120 686.238 102 686.238 77C686.238 52.1667 682.405 34.25 674.738 23.25C667.238 12.25 655.405 6.75 639.238 6.75C623.072 6.75 611.155 12.25 603.488 23.25C595.988 34.25 592.238 52.1667 592.238 77Z" fill="url(#paint3_linear_54_2559)" fill-opacity="0.1"/>
<path d="M760.557 1.75001C762.89 2.08334 766.223 2.25 770.557 2.25H875.307C880.64 2.25 883.973 2.08334 885.307 1.75001V40.75H878.807C878.807 29.9167 876.39 22 871.557 17C866.89 11.8333 859.057 9.25 848.057 9.25H837.557C835.89 9.25 834.89 10.1667 834.557 12V139.5C834.557 143.167 836.223 145 839.557 145L852.807 144.5V151.75H793.057V144.5L806.557 145C808.057 145 809.223 144.417 810.057 143.25C810.89 141.917 811.307 140.417 811.307 138.75V12.25C811.307 10.25 810.307 9.25 808.307 9.25H798.057C787.057 9.25 779.14 11.8333 774.307 17C769.473 22 767.057 29.9167 767.057 40.75H760.557V1.75001Z" fill="url(#paint4_linear_54_2559)" fill-opacity="0.1"/>
<path d="M1067.96 144.5V151.75H1001.71V144.5L1013.96 145C1018.96 145.5 1021.46 143.5 1021.46 139C1021.46 136.167 1020.63 132.917 1018.96 129.25L1006.71 99.75H948.465L936.965 127.75C934.632 132.917 933.465 137.083 933.465 140.25C933.465 143.75 935.298 145.417 938.965 145.25L950.965 144.5V151.75H907.715V144.5L914.215 145H915.215C918.548 145 921.298 143.417 923.465 140.25C925.965 136.583 928.465 131.75 930.965 125.75L983.215 0H989.715L1042.46 126.25C1044.8 132.25 1047.21 137 1049.71 140.5C1052.05 143.5 1054.96 145 1058.46 145H1059.71L1067.96 144.5ZM951.465 92.75H1003.71L977.465 29.75L951.465 92.75Z" fill="url(#paint5_linear_54_2559)" fill-opacity="0.1"/>
<path d="M1112.86 144.5L1122.61 145C1125.78 145 1127.36 143.167 1127.36 139.5V14.75C1127.36 13.25 1126.86 12 1125.86 11C1125.03 9.83334 1123.69 9.33334 1121.86 9.50001L1112.86 10V2.50001H1169.11C1187.61 2.50001 1201.03 5.66668 1209.36 12C1217.69 18.1667 1221.86 28.25 1221.86 42.25C1221.86 50.75 1219.03 58.1667 1213.36 64.5C1207.86 70.6667 1200.53 75 1191.36 77.5C1196.53 77.5 1201.69 79.25 1206.86 82.75C1212.19 86.25 1216.61 91.3333 1220.11 98C1223.61 104.667 1225.36 112.417 1225.36 121.25C1225.36 126.25 1225.94 131.333 1227.11 136.5C1228.44 141.667 1230.28 144.417 1232.61 144.75C1233.61 145.083 1234.78 145.25 1236.11 145.25C1238.11 145.25 1239.69 144.917 1240.86 144.25V151.75H1206.86C1204.86 147.583 1203.69 142.083 1203.36 135.25C1203.03 130.917 1202.86 127.75 1202.86 125.75V117.5C1202.86 105 1198.78 95.6667 1190.61 89.5C1182.61 83.3333 1172.78 80.25 1161.11 80.25H1150.61V139.5C1150.61 143.167 1152.28 145 1155.61 145L1167.86 144.5V151.75H1112.86V144.5ZM1173.86 73.5C1181.53 73.5 1187.53 70.75 1191.86 65.25C1196.19 59.75 1198.36 52.0833 1198.36 42.25C1198.36 30.75 1195.94 22.4167 1191.11 17.25C1186.44 12.0833 1179.11 9.50001 1169.11 9.50001H1153.61C1151.61 9.50001 1150.61 10.3333 1150.61 12V73.5H1173.86Z" fill="url(#paint6_linear_54_2559)" fill-opacity="0.1"/>
<path d="M1399.92 2.50001V10L1392.42 9.50001C1389.76 9.50001 1387.42 11.25 1385.42 14.75L1348.92 80V139.75C1348.92 143.25 1350.59 145 1353.92 145L1365.92 144.5V151.75H1308.67V144.5L1320.92 145C1324.09 145 1325.67 143.167 1325.67 139.5V86L1282.42 14.25C1280.76 11.0833 1278.76 9.50001 1276.42 9.50001L1269.42 10V2.50001H1324.67V10L1311.42 9.50001H1311.17C1309.34 9.50001 1308.42 10.3333 1308.42 12C1308.42 13 1308.84 14.1667 1309.67 15.5L1343.92 72.5L1376.67 14.5C1377.17 13.6667 1377.42 12.8333 1377.42 12C1377.42 10.3333 1376.59 9.50001 1374.92 9.50001L1361.92 10V2.50001H1399.92Z" fill="url(#paint7_linear_54_2559)" fill-opacity="0.1"/>
<defs>
<linearGradient id="paint0_linear_54_2559" x1="702" y1="-36.25" x2="702" y2="151.75" gradientUnits="userSpaceOnUse">
<stop stop-color="#988358"/>
<stop offset="1" stop-color="#988358" stop-opacity="0"/>
</linearGradient>
<linearGradient id="paint1_linear_54_2559" x1="702" y1="-36.25" x2="702" y2="151.75" gradientUnits="userSpaceOnUse">
<stop stop-color="#988358"/>
<stop offset="1" stop-color="#988358" stop-opacity="0"/>
</linearGradient>
<linearGradient id="paint2_linear_54_2559" x1="702" y1="-36.25" x2="702" y2="151.75" gradientUnits="userSpaceOnUse">
<stop stop-color="#988358"/>
<stop offset="1" stop-color="#988358" stop-opacity="0"/>
</linearGradient>
<linearGradient id="paint3_linear_54_2559" x1="702" y1="-36.25" x2="702" y2="151.75" gradientUnits="userSpaceOnUse">
<stop stop-color="#988358"/>
<stop offset="1" stop-color="#988358" stop-opacity="0"/>
</linearGradient>
<linearGradient id="paint4_linear_54_2559" x1="702" y1="-36.25" x2="702" y2="151.75" gradientUnits="userSpaceOnUse">
<stop stop-color="#988358"/>
<stop offset="1" stop-color="#988358" stop-opacity="0"/>
</linearGradient>
<linearGradient id="paint5_linear_54_2559" x1="702" y1="-36.25" x2="702" y2="151.75" gradientUnits="userSpaceOnUse">
<stop stop-color="#988358"/>
<stop offset="1" stop-color="#988358" stop-opacity="0"/>
</linearGradient>
<linearGradient id="paint6_linear_54_2559" x1="702" y1="-36.25" x2="702" y2="151.75" gradientUnits="userSpaceOnUse">
<stop stop-color="#988358"/>
<stop offset="1" stop-color="#988358" stop-opacity="0"/>
</linearGradient>
<linearGradient id="paint7_linear_54_2559" x1="702" y1="-36.25" x2="702" y2="151.75" gradientUnits="userSpaceOnUse">
<stop stop-color="#988358"/>
<stop offset="1" stop-color="#988358" stop-opacity="0"/>
</linearGradient>
</defs>
</svg>
